<?xml version="1.0" encoding="UTF-8"?>
<mxfile host="app.diagrams.net" modified="2024-06-01T12:00:00.000Z" agent="BLACKBOXAI" etag="123456" version="15.8.7" type="device">
  <diagram id="page-1" name="Multiple Processor Architecture">
    <mxGraphModel dx="1071" dy="660" grid="1" gridSize="10" guides="1" tooltips="1" connect="1" arrows="1" fold="1" page="1" pageScale="1" pageWidth="850" pageHeight="1100" math="0" shadow="0">
      <root>
        <mxCell id="0"/>
        <mxCell id="1" parent="0"/>
        <!-- Title -->
        <mxCell id="2" value="Multiple Processor Architecture (Loosely Coupled)" style="text;html=1;fontSize=18;fontStyle=1;fontColor=#000000;align=center;verticalAlign=middle;whiteSpace=wrap;rounded=0;" vertex="1" parent="1">
          <mxGeometry x="170" y="10" width="500" height="30" as="geometry"/>
        </mxCell>

        <!-- CPU 1 -->
        <mxCell id="cpu1" value="CPU 1" style="rounded=1;whiteSpace=wrap;html=1;fillColor=#dae8fc;strokeColor=#6c8ebf;fontSize=12;fontStyle=1;" vertex="1" parent="1">
          <mxGeometry x="40" y="70" width="120" height="60" as="geometry"/>
        </mxCell>
        <!-- Memory 1 -->
        <mxCell id="mem1" value="Memory 1" style="rounded=1;whiteSpace=wrap;html=1;fillColor=#fff2cc;strokeColor=#d6b656;fontSize=12;fontStyle=1;" vertex="1" parent="1">
          <mxGeometry x="40" y="140" width="120" height="60" as="geometry"/>
        </mxCell>
        <!-- I/O 1 -->
        <mxCell id="io1" value="I/O 1" style="rounded=1;whiteSpace=wrap;html=1;fillColor=#d5e8d4;strokeColor=#82b366;fontSize=12;fontStyle=1;" vertex="1" parent="1">
          <mxGeometry x="40" y="210" width="120" height="60" as="geometry"/>
        </mxCell>

        <!-- CPU 2 -->
        <mxCell id="cpu2" value="CPU 2" style="rounded=1;whiteSpace=wrap;html=1;fillColor=#dae8fc;strokeColor=#6c8ebf;fontSize=12;fontStyle=1;" vertex="1" parent="1">
          <mxGeometry x="200" y="70" width="120" height="60" as="geometry"/>
        </mxCell>
        <!-- Memory 2 -->
        <mxCell id="mem2" value="Memory 2" style="rounded=1;whiteSpace=wrap;html=1;fillColor=#fff2cc;strokeColor=#d6b656;fontSize=12;fontStyle=1;" vertex="1" parent="1">
          <mxGeometry x="200" y="140" width="120" height="60" as="geometry"/>
        </mxCell>
        <!-- I/O 2 -->
        <mxCell id="io2" value="I/O 2" style="rounded=1;whiteSpace=wrap;html=1;fillColor=#d5e8d4;strokeColor=#82b366;fontSize=12;fontStyle=1;" vertex="1" parent="1">
          <mxGeometry x="200" y="210" width="120" height="60" as="geometry"/>
        </mxCell>

        <!-- CPU 3 -->
        <mxCell id="cpu3" value="CPU 3" style="rounded=1;whiteSpace=wrap;html=1;fillColor=#dae8fc;strokeColor=#6c8ebf;fontSize=12;fontStyle=1;" vertex="1" parent="1">
          <mxGeometry x="360" y="70" width="120" height="60" as="geometry"/>
        </mxCell>
        <!-- Memory 3 -->
        <mxCell id="mem3" value="Memory 3" style="rounded=1;whiteSpace=wrap;html=1;fillColor=#fff2cc;strokeColor=#d6b656;fontSize=12;fontStyle=1;" vertex="1" parent="1">
          <mxGeometry x="360" y="140" width="120" height="60" as="geometry"/>
        </mxCell>
        <!-- I/O 3 -->
        <mxCell id="io3" value="I/O 3" style="rounded=1;whiteSpace=wrap;html=1;fillColor=#d5e8d4;strokeColor=#82b366;fontSize=12;fontStyle=1;" vertex="1" parent="1">
          <mxGeometry x="360" y="210" width="120" height="60" as="geometry"/>
        </mxCell>

        <!-- Lines CPU to Memory -->
        <mxCell id="edge-cpu1-mem1" style="edgeStyle=orthogonalEdgeStyle;rounded=0;orthogonalLoop=1;jettySize=auto;html=1;strokeColor=#000000;" edge="1" source="cpu1" target="mem1" parent="1">
          <mxGeometry relative="1" as="geometry"/>
        </mxCell>
        <mxCell id="edge-cpu2-mem2" style="edgeStyle=orthogonalEdgeStyle;rounded=0;orthogonalLoop=1;jettySize=auto;html=1;strokeColor=#000000;" edge="1" source="cpu2" target="mem2" parent="1">
          <mxGeometry relative="1" as="geometry"/>
        </mxCell>
        <mxCell id="edge-cpu3-mem3" style="edgeStyle=orthogonalEdgeStyle;rounded=0;orthogonalLoop=1;jettySize=auto;html=1;strokeColor=#000000;" edge="1" source="cpu3" target="mem3" parent="1">
          <mxGeometry relative="1" as="geometry"/>
        </mxCell>

        <!-- Lines CPU to I/O -->
        <mxCell id="edge-cpu1-io1" style="edgeStyle=orthogonalEdgeStyle;rounded=0;orthogonalLoop=1;jettySize=auto;html=1;strokeColor=#000000;" edge="1" source="cpu1" target="io1" parent="1">
          <mxGeometry relative="1" as="geometry"/>
        </mxCell>
        <mxCell id="edge-cpu2-io2" style="edgeStyle=orthogonalEdgeStyle;rounded=0;orthogonalLoop=1;jettySize=auto;html=1;strokeColor=#000000;" edge="1" source="cpu2" target="io2" parent="1">
          <mxGeometry relative="1" as="geometry"/>
        </mxCell>
        <mxCell id="edge-cpu3-io3" style="edgeStyle=orthogonalEdgeStyle;rounded=0;orthogonalLoop=1;jettySize=auto;html=1;strokeColor=#000000;" edge="1" source="cpu3" target="io3" parent="1">
          <mxGeometry relative="1" as="geometry"/>
        </mxCell>

      </root>
    </mxGraphModel>
  </diagram>

  <diagram id="page-2" name="Symmetric Multiprocessor (SMP) Architecture">
    <mxGraphModel dx="1071" dy="660" grid="1" gridSize="10" guides="1" tooltips="1" connect="1" arrows="1" fold="1" page="1" pageScale="1" pageWidth="850" pageHeight="1100" math="0" shadow="0">
      <root>
        <mxCell id="0"/>
        <mxCell id="1" parent="0"/>
        <!-- Title -->
        <mxCell id="2" value="Symmetric Multiprocessor (SMP) Architecture" style="text;html=1;fontSize=18;fontStyle=1;fontColor=#000000;align=center;verticalAlign=middle;whiteSpace=wrap;rounded=0;" vertex="1" parent="1">
          <mxGeometry x="170" y="10" width="500" height="30" as="geometry"/>
        </mxCell>

        <!-- CPUs -->
        <mxCell id="cpu1" value="CPU 1" style="rounded=1;whiteSpace=wrap;html=1;fillColor=#dae8fc;strokeColor=#6c8ebf;fontSize=12;fontStyle=1;" vertex="1" parent="1">
          <mxGeometry x="110" y="80" width="120" height="60" as="geometry"/>
        </mxCell>
        <mxCell id="cpu2" value="CPU 2" style="rounded=1;whiteSpace=wrap;html=1;fillColor=#dae8fc;strokeColor=#6c8ebf;fontSize=12;fontStyle=1;" vertex="1" parent="1">
          <mxGeometry x="250" y="80" width="120" height="60" as="geometry"/>
        </mxCell>
        <mxCell id="cpu3" value="CPU 3" style="rounded=1;whiteSpace=wrap;html=1;fillColor=#dae8fc;strokeColor=#6c8ebf;fontSize=12;fontStyle=1;" vertex="1" parent="1">
          <mxGeometry x="390" y="80" width="120" height="60" as="geometry"/>
        </mxCell>

        <!-- Shared Memory -->
        <mxCell id="sharedMem" value="Shared Memory" style="rounded=1;whiteSpace=wrap;html=1;fillColor=#fff2cc;strokeColor=#d6b656;fontSize=14;fontStyle=1;" vertex="1" parent="1">
          <mxGeometry x="190" y="160" width="180" height="80" as="geometry"/>
        </mxCell>

        <!-- Shared I/O -->
        <mxCell id="sharedIO" value="Shared I/O" style="rounded=1;whiteSpace=wrap;html=1;fillColor=#d5e8d4;strokeColor=#82b366;fontSize=14;fontStyle=1;" vertex="1" parent="1">
          <mxGeometry x="190" y="260" width="180" height="60" as="geometry"/>
        </mxCell>

        <!-- Bus connecting CPUs to shared memory and I/O -->
        <mxCell id="bus" value="" style="shape=line;html=1;strokeWidth=3;strokeColor=#000000;" vertex="1" parent="1">
          <mxGeometry x="0" y="140" width="600" height="10" as="geometry"/>
        </mxCell>

        <!-- Edges from CPUs to bus (vertical lines) -->
        <mxCell id="edge-cpu1-bus" style="edgeStyle=orthogonalEdgeStyle;html=1;strokeColor=#000000;" edge="1" source="cpu1" target="bus" parent="1">
          <mxGeometry relative="1" as="geometry">
            <mxPoint x="170" y="140" as="targetPoint"/>
          </mxGeometry>
        </mxCell>

        <mxCell id="edge-cpu2-bus" style="edgeStyle=orthogonalEdgeStyle;html=1;strokeColor=#000000;" edge="1" source="cpu2" target="bus" parent="1">
          <mxGeometry relative="1" as="geometry">
            <mxPoint x="310" y="140" as="targetPoint"/>
          </mxGeometry>
        </mxCell>

        <mxCell id="edge-cpu3-bus" style="edgeStyle=orthogonalEdgeStyle;html=1;strokeColor=#000000;" edge="1" source="cpu3" target="bus" parent="1">
          <mxGeometry relative="1" as="geometry">
            <mxPoint x="450" y="140" as="targetPoint"/>
          </mxGeometry>
        </mxCell>

        <!-- Connection from bus to shared memory -->
        <mxCell id="bus-sharedMem" style="edgeStyle=orthogonalEdgeStyle;html=1;strokeColor=#000000;" edge="1" source="bus" target="sharedMem" parent="1">
          <mxGeometry relative="1" as="geometry">
            <mxPoint x="290" y="160" as="targetPoint"/>
          </mxGeometry>
        </mxCell>

        <!-- Connection from shared memory to shared I/O -->
        <mxCell id="mem-sharedIO" style="edgeStyle=orthogonalEdgeStyle;html=1;strokeColor=#000000;" edge="1" source="sharedMem" target="sharedIO" parent="1">
          <mxGeometry relative="1" as="geometry"/>
        </mxCell>

      </root>
    </mxGraphModel>
  </diagram>
</mxfile>
